<?xml version="1.0" encoding="utf-8"?>
<!-- Generator: Adobe Illustrator 21.0.0, SVG Export Plug-In . SVG Version: 6.00 Build 0)  -->
<svg version="1.1" id="Capa_1" xmlns="http://www.w3.org/2000/svg" xmlns:xlink="http://www.w3.org/1999/xlink" x="0px" y="0px"
	 viewBox="0 0 612 366" style="enable-background:new 0 0 612 366;" xml:space="preserve">
<path d="M156.8,210.1c-2.8,15.2-5.6,30.6-8.3,46.1c-9.5-12.6-19-25-28.4-37.3c-9.5-12.3-18.9-24.7-28.4-37.3l-11.5,2.8l-2.4-10.1
	l32.1-7.7l2.4,10.1l-9.5,2.3c6.4,8.3,12.7,16.6,19,24.9c6.3,8.3,12.6,16.6,19,24.9l2.2,3.9l0.2-4.5c1.9-10.3,3.8-20.5,5.6-30.7
	s3.6-20.5,5.4-30.8l-7.8,1.9l-2.4-10.1l378-92l2.4,10.1l-359,87.5C162.4,179.5,159.6,194.9,156.8,210.1z"/>
<path d="M220.1,233.4l-0.6-2.6c-0.1-0.6-0.2-1-0.3-1.3s-0.2-0.7-0.3-1.3c0,0.3-0.4,0.9-1,1.7c-0.6,0.9-1.6,1.8-2.8,2.8
	c-1.3,1.1-2.9,2.2-4.8,3.3c-1.9,1-4.1,1.9-6.7,2.5c-3.7,0.9-7.4,1.1-10.9,0.5c-3.6-0.5-6.9-1.7-9.8-3.4c-2.9-1.7-5.5-3.9-7.6-6.6
	s-3.6-5.7-4.4-9.2c-0.8-3.3-0.9-6.7-0.3-10.1c0.6-3.4,1.9-6.5,3.7-9.4s4.2-5.4,7.2-7.5c2.9-2.1,6.3-3.7,10-4.6
	c4.9-1.2,8.9-1.3,12.1-0.3c3.2,1,5.4,2.1,6.4,3.4c-0.1-0.9-0.2-1.9-0.4-3c-0.1-1.1-0.3-2.2-0.6-3.2l9.1-2.2l9.1,37.8l10.1-2.4
	l2.4,10.1L220.1,233.4z M187.6,201.6c-1.8,1.3-3.2,2.8-4.2,4.6c-0.9,1.6-1.5,3.3-1.8,5.2c-0.3,1.9-0.1,3.8,0.4,5.9
	c0.6,2.4,1.6,4.5,3.1,6.3s3.3,3.2,5.4,4.1c1.5,0.6,3.1,1,4.9,1.2c1.8,0.2,3.7,0,5.6-0.5c2.2-0.5,4.1-1.4,5.8-2.5
	c1.6-1.1,3-2.4,4-3.9c1.2-1.7,2-3.6,2.3-5.7c0.4-2.1,0.3-4.2-0.2-6.4c-0.5-2.2-1.4-4.2-2.7-5.8c-1.3-1.7-2.8-3-4.5-3.9
	s-3.5-1.4-5.5-1.6s-4.1-0.1-6.3,0.4C191.5,199.4,189.4,200.3,187.6,201.6z"/>
<path d="M249.1,226.4l-2.4-10.1l10.1-2.4l-6.7-27.7l-8.7,2.1l-2.4-10.1l18.4-4.4l2.1,6.5c0.7,2,1,2.9,0.9,2.8
	c-0.1-0.2,0.2,0.8,0.9,2.8c0.5-2.4,1.4-4.6,2.7-6.7c1.2-2.1,2.6-3.8,4.1-5.4c1.6-1.6,3.1-3,4.7-4s3-1.7,4.4-2l1.7,10.7
	c-2.2,0.5-4.2,1.3-6,2.3s-3.3,2.1-4.4,3.4c-1.8,1.9-3,4-3.7,6.4s-0.7,4.9-0.1,7.6l3.2,13.2l8.3-2l2.4,10.1L249.1,226.4z"/>
<path d="M298.1,214.6l-2.4-10.1l9.3-2.2l-6.7-27.7l-9.3,2.2l-2.4-10.1l20.3-4.9l9.1,37.8l9.1-2.2l2.4,10.1L298.1,214.6z
	 M302.9,148.2c-1.1,1.6-2.5,2.6-4.2,3c-1.8,0.4-3.5,0.2-5.2-0.7c-1.7-0.9-2.8-2.3-3.3-4.3s-0.2-3.7,0.9-5.4c1.1-1.6,2.5-2.6,4.3-3.1
	c1.7-0.4,3.4-0.1,5.1,0.8s2.8,2.4,3.3,4.3C304.3,144.9,304,146.7,302.9,148.2z"/>
<path d="M334.9,197.1l10.1-2.4l-13.6-56.8l-8.7,2.1l-2-8.3l19.7-4.8l12.3,51.3l9.9-11.8l-4.9,1.2l-2-8.3l26.6-6.4l2,8.3l-8.2,2
	c-1.6,1.9-3.2,3.8-4.7,5.7c-1.5,1.9-3.1,3.8-4.7,5.7c2.7,1.9,5.4,3.7,8.1,5.5s5.5,3.6,8.3,5.5l12.3-3l2,8.3l-26.6,6.4l-2-8.3
	l1.5-0.4c-1.7-1.1-3.3-2.2-5-3.3c-1.7-1.1-3.3-2.2-4.9-3.3l-5.3,6.4l0.9,3.7l8.3-2l2,8.3l-29.4,7.1L334.9,197.1z"/>
<path d="M442.3,179.2c-2.5,1.9-5.5,3.2-8.8,4c-3.7,0.9-7.3,1.1-10.9,0.5c-3.5-0.5-6.8-1.7-9.7-3.4c-2.9-1.7-5.5-3.9-7.6-6.6
	s-3.6-5.8-4.4-9.3c-0.8-3.4-0.9-6.8-0.3-10.2c0.6-3.4,1.9-6.5,3.7-9.4c1.9-2.8,4.2-5.2,7.1-7.3c2.9-2.1,6.2-3.6,9.9-4.5
	c2.7-0.7,5.5-0.8,8.3-0.3s5.4,1.4,7.9,2.8c2.4,1.4,4.7,3.2,6.8,5.5c2.1,2.2,4,4.8,5.5,7.7c-5.5,3.6-11,7.2-16.4,10.7
	c-5.5,3.6-10.9,7.1-16.4,10.7c1.8,1.5,3.8,2.5,6.3,3c2.4,0.5,5,0.5,7.7-0.2c2-0.5,3.8-1.3,5.3-2.4s2.8-2.5,3.8-4.2l8.6,6
	C446.9,175,444.8,177.3,442.3,179.2z M417.4,146.2c-1.8,1.3-3.2,2.8-4.3,4.6c-0.8,1.4-1.3,3-1.6,4.7c-0.3,1.7-0.3,3.4,0.1,5.3
	c3.8-2.4,7.6-4.9,11.3-7.4c3.8-2.5,7.5-4.9,11.3-7.4c-1.6-1.1-3.3-2-5-2.5c-1.8-0.5-3.6-0.6-5.4-0.1
	C421.4,143.9,419.2,144.9,417.4,146.2z"/>
<path d="M167.2,272.5l2.4-11.3L488.5,183c1-4.1,2-8.2,3-12.3c1-4.1-0.7,1.4,0.3-2.7c-4.9-5.6-9.7-11.1-14.4-16.5
	c-4.7-5.4-9.5-11-14.4-16.5l-11.1,2.7l-2.4-10.1l29.4-7.1l2.4,10.1l-7,1.7c3.7,4.1,7.4,8.2,11.1,12.3c3.7,4.1,7,8.3,9.8,12.7
	c0.5-5.2,1.5-10.4,2.9-15.8c1.4-5.3,2.8-10.7,4.2-16l-8.2,2l-2.4-10.1l30.3-7.3l2.4,10.1l-10.9,2.6c-2.8,11.3-5.6,22.5-8.4,33.6
	c-2.8,11.1-2.8,12.7-5.6,24l6.5-1.6l2.4,10.1L167.2,272.5z"/>
<g>
	<polygon points="191,263 177.5,266.3 179.8,255 188.5,252.8 	"/>
	<polygon points="212.9,257.7 199.4,261 201.7,249.6 210.4,247.5 	"/>
	<polygon points="234.7,252.3 221.2,255.6 223.5,244.2 232.2,242.1 	"/>
	<polygon points="256.6,246.9 243.1,250.2 245.4,238.9 254.1,236.7 	"/>
	<polygon points="278.4,241.6 264.9,244.9 267.2,233.5 275.9,231.4 	"/>
	<polygon points="300.3,236.2 286.8,239.5 289.1,228.1 297.8,226 	"/>
	<polygon points="322.1,230.8 308.6,234.1 310.9,222.8 319.6,220.6 	"/>
	<polygon points="344,225.5 330.5,228.8 332.8,217.4 341.5,215.3 	"/>
	<polygon points="365.8,220.1 352.3,223.4 354.6,212 363.3,209.9 	"/>
	<polygon points="387.7,214.7 374.2,218 376.5,206.7 385.2,204.5 	"/>
	<polygon points="409.5,209.4 396,212.7 398.3,201.3 407,199.2 	"/>
	<polygon points="431.4,204 417.9,207.3 420.2,195.9 428.9,193.8 	"/>
	<polygon points="453.2,198.6 439.7,201.9 442,190.6 450.7,188.4 	"/>
	<polygon points="475.1,193.3 461.6,196.6 463.9,185.2 472.6,183.1 	"/>
</g>
</svg>
